<?xml version="1.0" encoding="utf-8"?>
<!-- Generator: Adobe Illustrator 21.1.0, SVG Export Plug-In . SVG Version: 6.00 Build 0)  -->
<svg version="1.1" id="Layer_1" xmlns="http://www.w3.org/2000/svg" xmlns:xlink="http://www.w3.org/1999/xlink" x="0px" y="0px"
	 viewBox="0 0 267.5 107.1" style="enable-background:new 0 0 267.5 107.1;" xml:space="preserve">
<style type="text/css">
	.st0{fill:#052C3D;}
	.st1{fill:#C12026;}
</style>
<g>
	<path class="st0" d="M26.6,106.4l-1.1-6.4H13.2l-3.8,6.4H0.8l20.4-31.9h7.3l6,31.9H26.6z M23.1,82.7L16.4,94h8.3L23.1,82.7z"/>
	<path class="st0" d="M40.5,86.4c0.1-0.9,0.2-1.7,0.3-2.4h6.9c0,0.4-0.1,0.9-0.2,1.6c-0.1,0.7-0.1,1.2-0.2,1.7h0.1
		c0.3-0.5,0.7-1,1.2-1.4c0.5-0.5,1-0.9,1.5-1.2c0.6-0.4,1.2-0.6,1.9-0.9c0.7-0.2,1.4-0.3,2.3-0.3c1.8,0,3.2,0.4,4.3,1.1
		c1.1,0.7,1.8,1.7,2.2,2.9c0.9-1.2,1.9-2.1,3.1-2.9c1.2-0.7,2.6-1.1,4.3-1.1c1.3,0,2.4,0.2,3.3,0.6c0.9,0.4,1.7,0.9,2.3,1.6
		c0.6,0.7,1.1,1.4,1.4,2.3c0.3,0.9,0.4,1.7,0.4,2.6c0,0.4,0,0.7,0,1.1c0,0.4-0.1,0.7-0.1,1L73,106.4h-7.2l2.1-12.2
		c0.2-0.7,0.2-1.3,0.2-1.9c0-0.9-0.2-1.6-0.7-2.2c-0.5-0.6-1.2-0.9-2.3-0.9c-0.6,0-1.2,0.1-1.7,0.4c-0.5,0.3-1,0.7-1.4,1.1
		c-0.4,0.5-0.7,1-0.9,1.6c-0.2,0.6-0.4,1.2-0.5,1.9l-2.1,12.1h-7.3l2.3-12.9c0.1-0.5,0.1-0.9,0.1-1.3c0-0.9-0.2-1.6-0.7-2.2
		c-0.4-0.6-1.1-0.9-2.1-0.9c-1.2,0-2.2,0.5-3,1.5c-0.8,1-1.3,2.1-1.5,3.5l-2.2,12.2H37l3.1-17.8C40.3,88,40.4,87.3,40.5,86.4z"/>
	<path class="st0" d="M86,97.1c0,0.1,0,0.3,0,0.4c0,0.6,0.1,1.2,0.4,1.7c0.3,0.5,0.7,0.9,1.1,1.3c0.5,0.3,1,0.6,1.6,0.8
		c0.6,0.2,1.2,0.3,1.8,0.3c1.1,0,2.2-0.2,3-0.6c0.9-0.4,1.7-1,2.3-1.7l4.6,3.6c-1.4,1.5-3.1,2.6-4.8,3.3c-1.8,0.7-3.7,1-5.7,1
		c-1.6,0-3-0.2-4.4-0.7c-1.3-0.4-2.5-1.1-3.5-1.9c-1-0.9-1.8-1.9-2.3-3.2c-0.6-1.3-0.9-2.7-0.9-4.3c0-1.9,0.3-3.7,1-5.4
		c0.7-1.7,1.6-3.1,2.8-4.4c1.2-1.2,2.6-2.2,4.3-2.9c1.7-0.7,3.5-1.1,5.5-1.1c1.5,0,2.8,0.2,4,0.6c1.2,0.4,2.3,1,3.1,1.8
		c0.9,0.8,1.5,1.8,2,3c0.5,1.2,0.7,2.5,0.7,4.1c0,0.5-0.1,1.2-0.2,2.1c-0.1,0.8-0.2,1.6-0.4,2.3H86z M96.2,92.7c0-0.2,0-0.3,0-0.5
		c0-0.2,0-0.3,0-0.5c0-1-0.4-1.8-1.1-2.5c-0.7-0.7-1.7-1-3-1c-0.8,0-1.5,0.1-2.2,0.4c-0.6,0.3-1.2,0.6-1.7,1.1
		c-0.5,0.4-0.9,0.9-1.2,1.4c-0.3,0.5-0.5,1-0.6,1.5H96.2z"/>
	<path class="st0" d="M122.4,106.4l4-23.1h7.3l-4.1,23.1H122.4z M135.1,76.4c0,0.6-0.1,1.2-0.3,1.7c-0.2,0.5-0.5,1-0.9,1.4
		c-0.4,0.4-0.8,0.7-1.3,0.9c-0.5,0.2-1.1,0.3-1.7,0.3c-1.1,0-2.1-0.3-2.8-1c-0.7-0.7-1.1-1.5-1.1-2.6c0-1.2,0.4-2.3,1.2-3.1
		c0.8-0.8,1.8-1.2,3-1.2c1.1,0,2,0.3,2.8,1C134.8,74.5,135.1,75.4,135.1,76.4z"/>
	<path class="st0" d="M168.2,107.1c-1.6,0-3.1-0.2-4.5-0.7c-1.4-0.5-2.6-1.1-3.6-2c-1-0.9-1.8-1.9-2.4-3.1c-0.6-1.2-0.9-2.6-0.9-4.1
		c0-1.9,0.3-3.6,0.9-5.3c0.6-1.7,1.5-3.2,2.7-4.4c1.2-1.3,2.6-2.3,4.3-3c1.7-0.8,3.6-1.1,5.7-1.1c1.7,0,3.2,0.2,4.6,0.7
		c1.4,0.5,2.6,1.1,3.7,2c1,0.9,1.8,1.9,2.4,3.1c0.6,1.2,0.9,2.6,0.9,4.1c0,1.9-0.3,3.7-0.9,5.4c-0.6,1.7-1.5,3.2-2.8,4.4
		c-1.2,1.3-2.7,2.3-4.4,3C172.3,106.7,170.4,107.1,168.2,107.1z M174.9,93.9c0-1.4-0.4-2.5-1.2-3.4c-0.8-0.9-2-1.4-3.5-1.4
		c-1,0-1.8,0.2-2.6,0.6c-0.8,0.4-1.4,0.9-2,1.6c-0.5,0.7-1,1.4-1.3,2.3c-0.3,0.9-0.5,1.8-0.5,2.8c0,1.4,0.4,2.5,1.2,3.4
		c0.8,0.9,2,1.3,3.5,1.3c1,0,1.8-0.2,2.6-0.6c0.8-0.4,1.5-0.9,2-1.6c0.6-0.7,1-1.4,1.3-2.3C174.8,95.8,174.9,94.9,174.9,93.9z"/>
	<path class="st0" d="M152.9,102.6c-0.4-0.9-0.7-1.9-0.9-3c-0.4,0.3-0.8,0.6-1.3,0.8c-0.8,0.4-1.7,0.6-2.8,0.6
		c-0.8,0-1.6-0.1-2.2-0.4c-0.6-0.3-1.1-0.6-1.5-1.1c-0.4-0.4-0.7-0.9-0.9-1.5c-0.2-0.6-0.3-1.2-0.3-1.8c0-0.9,0.2-1.8,0.5-2.7
		c0.3-0.9,0.8-1.6,1.4-2.3c0.6-0.7,1.3-1.2,2.1-1.6c0.8-0.4,1.7-0.6,2.7-0.6c0.9,0,1.7,0.2,2.4,0.6c0.5,0.3,0.8,0.5,1.1,0.8
		c0.7-1.8,1.8-3.4,3-4.7c0.2-0.2,0.4-0.4,0.5-0.5c-0.6-0.5-1.3-0.9-2.1-1.2c-1.5-0.6-3.1-0.9-4.8-0.9c-2.1,0-4,0.4-5.7,1.2
		c-1.7,0.8-3.2,1.8-4.4,3.1c-1.2,1.3-2.1,2.8-2.8,4.4c-0.7,1.7-1,3.4-1,5.3c0,1.5,0.3,2.9,0.8,4.1c0.5,1.2,1.3,2.2,2.2,3.1
		c0.9,0.9,2.1,1.5,3.5,2c1.4,0.5,2.8,0.7,4.5,0.7c1.9,0,3.6-0.3,5.1-0.9c0.8-0.3,1.6-0.7,2.3-1.2
		C153.8,104.2,153.3,103.4,152.9,102.6z"/>
	<path class="st0" d="M198.1,106.4l5.6-31.9h7.5l-5.6,31.9H198.1z"/>
	<path class="st0" d="M228.5,74.5c3.8,0,6.6,0.8,8.6,2.3c2,1.6,3,3.7,3,6.5c0,1.9-0.3,3.5-1,4.9c-0.7,1.4-1.6,2.5-2.8,3.4
		c-1.2,0.9-2.7,1.5-4.4,2c-1.7,0.4-3.7,0.6-5.8,0.6h-4.1l-2.2,12.1h-7.4l5.6-31.9H228.5z M226.1,88.3c2,0,3.5-0.3,4.7-0.9
		c1.2-0.6,1.7-1.7,1.7-3.3c0-0.7-0.1-1.3-0.4-1.7c-0.3-0.5-0.6-0.8-1.1-1.1c-0.5-0.3-1-0.5-1.6-0.6c-0.6-0.1-1.3-0.2-2.1-0.2h-3.1
		l-1.4,7.8H226.1z"/>
	<path class="st0" d="M259.6,106.4l-1.1-6.4h-12.3l-3.8,6.4h-8.6l20.3-31.9h7.3l6,31.9H259.6z M256.1,82.7L249.4,94h8.3L256.1,82.7z
		"/>
	<path class="st0" d="M123.4,83.4l0,0.2l-1.2,6.4c-0.3-0.1-0.6-0.2-0.9-0.2c-0.3,0-0.6,0-0.9,0c-1.1,0-1.9,0.2-2.7,0.5
		c-0.7,0.4-1.3,0.8-1.8,1.3c-0.5,0.5-0.8,1.1-1,1.7c-0.2,0.6-0.4,1.1-0.5,1.6l-2,11.6h-7.2l3.2-17.8c0.1-0.6,0.2-1.3,0.4-2.2
		c0.1-0.9,0.2-1.7,0.3-2.4h6.9c0,0.2,0,0.4,0,0.7c0,0.3-0.1,0.6-0.1,0.9c0,0.3-0.1,0.6-0.1,0.9c0,0.3-0.1,0.6-0.1,0.8h0.1
		c0.7-1.1,1.6-2.1,2.6-2.8c1-0.7,2.2-1.1,3.5-1.1c0,0,0.1,0,0.1,0H123.4z"/>
	<path class="st0" d="M121.8,83.4C121.8,83.4,121.8,83.4,121.8,83.4h-0.1H121.8z"/>
</g>
<path id="XMLID_10_" class="st1" d="M130.1,46.4c-0.1,0.2-0.2,0.2,0,0.2C130.1,46.6,130.1,46.5,130.1,46.4L130.1,46.4z M84.3,29.2
	h19.3v0c6.7,0,10.5,0.7,12.8,2.1c2.4,1.5,3.1,3.5,3.6,6.3c0.3,1.1,0,1.7,0.1,1.6c0,0,0.3-2.1,0.6-4.7c0.4-2.8,0.8-6.1,1.6-8.4l0,0
	c0.4-1.5,1-2,1.8-1.8c1.8,0.5,3.7,9.5,5.1,16.2c0.3,1.6,0.7,3.1,0.9,4.3c0.2-2.1,0.4-6,0.8-10.6c0.9-10.8,2.1-25.3,4.2-31.8l0,0
	c0.6-1.9,1.4-2.6,2.2-2.3c2.2,0.7,3.6,14.6,5,28.5c0.8,8.4,1.7,16.7,2.6,22.1v0c0.2,1.1-0.1,1.6,0,1.6c0.6-0.1,2.1-9.2,3.6-18.4
	c1-6,2-12,2.9-15.6c0.4-2.7,1.1-3.8,1.9-3.7c1.4,0.2,2.3,5.3,3.3,10.3c0.7,3.5,1.3,6.9,1.9,8.6l0,0.1c0.5,2.1,0.6,2.9,0.7,2.9
	c0.2-0.1,0.6-2.8,1-5.5l0.1-0.9v0c0.6-4.1,1.8-5.1,3.9-4.8c0.9,0.1,2,0.6,3.3,1.2c2.7,1.2,6.5,2.8,11.8,2.8h16.4
	c0.3-1.1,1.3-1.9,2.5-1.9c1.4,0,2.6,1.2,2.6,2.6c0,1.4-1.2,2.6-2.6,2.6c-1.2,0-2.2-0.8-2.5-1.9h-16.4c-5.7,0-9.6-1.7-12.4-2.9
	c-1.2-0.5-2.2-0.9-3-1.1c-1.1-0.2-1.7,0.6-2.2,3.6h0l-0.1,0.9c-0.5,3.2-1,6.4-2.1,6.7c-0.9,0.2-1.7-0.8-2.5-3.9
	c-0.6-1.8-1.3-5.3-2-8.7c-0.9-4.6-1.7-9.1-2-9.2c-0.1,0,0,0.7-0.2,2.4l0,0.1c-0.9,3.6-1.9,9.6-2.9,15.6c-1.6,9.7-3.2,19.3-4.9,19.6
	c-0.8,0.1-1.4-0.7-1.7-2.8h0c-0.9-5.4-1.8-13.8-2.6-22.2c-1.3-13.4-2.7-26.8-4-27.2c0,0-0.1,0.4-0.4,1.3l0,0
	c-2.1,6.4-3.3,20.8-4.2,31.5c-0.6,7.7-1.1,13.6-2.2,13.8c-0.6,0.1-1.1-0.6-1.4-2.4c-0.3-1.2-0.7-3-1.1-4.9c-1.3-6.3-3.1-14.8-4-15
	c-0.1,0,0.1,0.3,0,0.8l0,0c-0.7,2.2-1.2,5.4-1.5,8.2c-0.4,3.1-0.8,5.7-1.7,6c-0.7,0.2-1.4-0.6-2-2.7l0-0.1c-0.4-2.4-1-4.2-2.9-5.3
	c-2-1.2-5.6-1.9-12-1.9v0H84.3c-0.3,1.1-1.3,1.9-2.5,1.9c-1.4,0-2.6-1.2-2.6-2.6c0-1.4,1.2-2.6,2.6-2.6C83,27.3,84,28.1,84.3,29.2z"
	/>
</svg>
